<svg xmlns="http://www.w3.org/2000/svg" viewBox="0 0 512 512" role="img" aria-labelledby="title desc">
  <title id="title">DriveEase Logo</title>
  <desc id="desc">Dark navy background with a clipped green circle and white car icon.</desc>
  <rect width="512" height="512" fill="#06122a" />
  <circle cx="256" cy="256" r="286" fill="#18b24c" />
  <g fill="none" stroke="#ffffff" stroke-width="26" stroke-linecap="round" stroke-linejoin="round">
    <path d="M164 309h182c8 0 14-6 14-14v-28c0-10-8-18-17-19l-34-8-20-24c-4-5-10-8-16-8h-88c-8 0-15 3-21 9l-16 27c-3 5-4 10-4 16v35c0 8 6 14 14 14h6" />
    <path d="M198 309h78" />
    <circle cx="199" cy="309" r="22" />
    <circle cx="301" cy="309" r="22" />
  </g>
</svg>